<?xml version="1.0" standalone="no"?>
<!DOCTYPE svg PUBLIC "-//W3C//DTD SVG 20010904//EN"
 "http://www.w3.org/TR/2001/REC-SVG-20010904/DTD/svg10.dtd">
<svg version="1.0" xmlns="http://www.w3.org/2000/svg"
 width="1024.000000pt" height="1024.000000pt" viewBox="0 0 1024.000000 1024.000000"
 preserveAspectRatio="xMidYMid meet">
<metadata>
Created by potrace 1.16, written by Peter Selinger 2001-2019
</metadata>
<g transform="translate(0.000000,1024.000000) scale(0.100000,-0.100000)"
fill="#000000" stroke="none">
<path d="M4910 8640 c-199 -16 -458 -71 -655 -140 -117 -41 -385 -171 -502
-243 -500 -311 -904 -860 -1067 -1452 -197 -717 -79 -1456 331 -2073 360 -543
946 -947 1568 -1081 481 -104 1009 -63 1461 114 314 123 611 325 849 577 153
163 321 391 372 506 13 31 27 59 29 61 2 2 31 -25 64 -61 33 -36 75 -73 95
-82 35 -17 75 -14 75 6 0 5 6 8 14 5 19 -7 27 29 21 85 -3 23 -21 166 -40 316
-19 149 -35 274 -35 277 0 15 -66 -3 -268 -71 -124 -41 -264 -92 -311 -112
-75 -33 -86 -41 -94 -69 -8 -25 -6 -38 7 -58 26 -40 60 -56 136 -66 39 -5 75
-11 80 -14 11 -7 -49 -138 -131 -287 -55 -100 -75 -126 -178 -227 -153 -150
-273 -250 -401 -333 -405 -265 -928 -394 -1406 -347 -615 59 -1185 374 -1567
864 -256 328 -414 679 -472 1050 -22 139 -31 445 -16 575 45 394 213 813 458
1142 304 408 771 709 1275 822 414 93 829 72 1237 -63 325 -107 589 -265 830
-496 355 -341 578 -756 672 -1250 30 -157 38 -511 15 -685 -9 -69 -19 -135
-22 -147 l-6 -21 64 19 c36 12 95 21 140 22 68 1 78 4 82 22 37 153 33 599 -7
825 -78 440 -265 851 -539 1187 -143 176 -366 376 -563 506 -188 124 -494 256
-749 322 -248 65 -591 95 -846 75z"/>
<path d="M5055 7578 c-220 -95 -692 -307 -830 -372 l-160 -76 -6 -102 c-4 -57
-7 -210 -8 -340 -1 -279 23 -236 -191 -331 -80 -35 -202 -93 -272 -128 l-127
-64 -3 -573 -3 -572 95 -44 c52 -24 262 -125 465 -224 510 -248 1169 -552
1197 -552 23 0 725 335 1163 555 l240 120 -5 35 c-3 19 -5 114 -5 210 0 130 5
194 18 250 20 87 62 181 100 226 l27 32 -1 193 c0 107 -3 212 -7 234 l-7 39
-140 64 c-77 35 -200 92 -272 127 l-133 64 0 294 c0 162 -3 341 -6 399 l-7
106 -46 21 c-25 11 -165 73 -311 137 -146 64 -359 159 -473 210 -115 52 -211
94 -215 93 -4 0 -38 -14 -77 -31z m236 -298 c82 -39 209 -95 282 -126 73 -30
145 -61 160 -67 28 -12 24 -15 -135 -81 -89 -38 -234 -102 -320 -144 l-157
-75 -148 68 c-81 38 -213 97 -293 131 -79 35 -151 70 -159 78 -12 13 -9 17 25
31 21 9 158 69 304 135 146 65 271 119 278 119 6 1 80 -31 163 -69z m-573
-576 c79 -35 177 -76 218 -90 l75 -27 -7 -211 c-8 -271 -7 -266 -19 -266 -6 0
-87 36 -180 81 -94 44 -247 114 -342 156 l-172 75 -3 222 c-2 121 0 225 4 230
3 5 4 15 1 23 -3 8 58 -17 138 -58 79 -39 209 -100 287 -135z m1232 -92 l0
-288 -187 -91 c-446 -217 -505 -243 -519 -232 -11 9 -14 69 -14 294 l0 283
113 47 c158 67 492 217 552 248 28 14 51 26 53 27 1 0 2 -130 2 -288z m-1401
-562 c214 -99 394 -180 400 -180 26 0 7 -18 -41 -41 -28 -13 -94 -47 -145 -75
l-93 -52 -347 175 c-392 197 -435 221 -429 232 8 12 196 103 231 112 17 4 31
7 32 8 1 1 177 -80 392 -179z m1680 9 c80 -39 140 -74 135 -79 -5 -5 -99 -51
-210 -103 -110 -51 -293 -142 -405 -201 -112 -59 -213 -111 -224 -116 -11 -5
-74 -34 -141 -64 -66 -31 -128 -56 -138 -56 -15 0 -148 70 -250 131 l-29 17
294 144 c162 78 409 200 549 270 140 70 260 127 266 127 6 1 75 -31 153 -70z
m-2124 -344 c105 -51 244 -116 310 -146 119 -53 192 -90 482 -240 84 -43 159
-79 167 -79 9 0 16 -16 21 -46 6 -42 -4 -684 -11 -684 -25 0 -1354 637 -1378
661 -10 9 -10 303 0 580 l7 166 106 -60 c58 -33 192 -102 296 -152z m2390 55
c4 -6 3 -168 -1 -359 l-7 -349 -101 -47 c-56 -26 -189 -87 -296 -135 -107 -48
-324 -152 -482 -231 l-288 -145 -2 126 c-1 69 -1 228 -1 354 l1 229 78 32 c44
18 304 145 578 284 275 138 503 251 507 251 4 0 11 -5 14 -10z"/>
<path d="M1634 2905 c-104 -22 -166 -62 -219 -139 -34 -51 -70 -135 -60 -144
6 -7 143 -31 177 -31 21 -1 28 5 33 28 19 86 157 128 255 79 36 -18 48 -31 59
-64 13 -37 12 -44 -5 -79 -28 -57 -62 -77 -141 -84 -37 -4 -74 -10 -80 -14 -9
-5 -13 -34 -13 -81 l0 -73 31 -7 c17 -3 51 -6 76 -6 52 0 100 -19 128 -50 29
-32 28 -110 -3 -143 -66 -70 -223 -58 -296 23 -20 22 -36 47 -36 54 0 8 -4 17
-9 20 -14 9 -191 -56 -191 -69 0 -31 66 -138 107 -174 77 -69 136 -86 293 -86
155 0 195 12 273 85 64 58 91 118 91 205 0 107 -41 172 -133 213 l-44 20 39
20 c85 44 124 113 124 219 -1 211 -201 334 -456 278z"/>
<path d="M2513 2896 c-59 -19 -104 -49 -155 -103 -82 -88 -116 -193 -125 -378
-15 -319 104 -519 328 -554 135 -21 266 17 344 100 67 72 78 105 79 229 1 96
-2 110 -27 162 -52 105 -157 168 -281 168 -77 0 -146 -22 -187 -61 -18 -16
-34 -27 -37 -24 -11 11 20 161 41 199 32 57 67 79 136 84 78 6 123 -11 166
-60 l35 -42 22 21 c13 11 44 34 71 52 26 18 47 38 47 45 0 29 -83 106 -147
138 -60 29 -77 33 -167 35 -65 2 -116 -2 -143 -11z m187 -564 c52 -26 80 -74
80 -139 0 -71 -20 -106 -73 -132 -55 -27 -92 -27 -147 2 -107 53 -124 230 -27
272 45 20 125 18 167 -3z"/>
<path d="M3448 2900 c-151 -27 -281 -180 -324 -380 -19 -91 -14 -257 12 -340
37 -123 119 -232 211 -282 95 -52 242 -56 347 -9 100 44 200 181 231 316 19
79 22 258 6 327 -38 166 -148 310 -271 353 -54 19 -152 26 -212 15z m148 -199
c50 -23 85 -68 110 -141 29 -85 27 -304 -4 -382 -54 -135 -186 -179 -281 -92
-72 64 -104 194 -90 365 9 105 32 168 78 213 58 57 117 69 187 37z"/>
<path d="M4622 2899 c-82 -14 -147 -46 -195 -98 -57 -61 -72 -106 -71 -208 3
-163 52 -210 313 -298 115 -38 173 -63 193 -82 37 -35 37 -75 0 -113 -74 -73
-254 -64 -339 17 -53 51 -91 48 -155 -15 -27 -25 -48 -51 -48 -57 0 -27 75
-96 140 -129 92 -46 164 -60 280 -53 105 5 162 23 233 74 88 61 134 192 108
306 -25 114 -114 177 -355 251 -135 42 -166 65 -166 121 0 68 81 113 186 102
74 -8 120 -30 151 -76 17 -24 36 -40 48 -41 22 0 125 97 125 117 0 6 -18 34
-40 61 -49 63 -136 108 -235 122 -80 11 -100 11 -173 -1z"/>
<path d="M6309 2885 c-166 -45 -309 -196 -348 -365 -16 -69 -13 -219 5 -281
60 -205 225 -355 415 -378 236 -30 452 99 544 326 37 90 46 231 20 319 -53
184 -181 324 -344 374 -74 23 -219 26 -292 5z m233 -187 c56 -16 122 -79 155
-146 26 -53 28 -66 28 -177 0 -101 -3 -127 -21 -166 -52 -111 -136 -165 -254
-162 -75 1 -124 20 -175 65 -123 107 -134 381 -21 515 41 49 119 83 189 83 33
0 77 -5 99 -12z"/>
<path d="M7433 2885 c-203 -55 -357 -244 -378 -466 -18 -173 91 -391 243 -487
88 -56 163 -75 287 -70 131 5 200 28 278 92 51 42 127 138 127 161 0 7 -39 30
-87 51 -82 37 -87 38 -97 20 -52 -89 -134 -136 -242 -136 -168 0 -284 130
-284 319 0 208 134 356 308 338 77 -8 136 -46 173 -112 28 -51 32 -53 57 -44
59 21 167 85 170 100 5 25 -87 138 -141 176 -101 68 -281 93 -414 58z"/>
<path d="M5142 2794 l3 -97 140 -1 140 -1 3 -407 2 -408 100 0 100 0 0 405 0
405 145 0 145 0 0 100 0 100 -390 0 -391 0 3 -96z"/>
<path d="M8116 2878 c-3 -7 -7 -235 -10 -505 l-5 -493 108 0 108 0 8 179 7
179 38 37 38 37 57 -88 c32 -49 94 -146 139 -216 l81 -128 139 0 138 0 -18 28
c-10 15 -86 119 -169 232 -83 113 -168 229 -189 257 l-38 53 191 209 c105 116
191 212 191 216 0 3 -57 5 -127 4 l-128 0 -110 -126 c-60 -68 -138 -158 -172
-199 l-63 -74 -2 202 -3 203 -103 3 c-77 2 -103 -1 -106 -10z"/>
</g>
</svg>
